<svg height="512pt" viewBox="-72 0 512 512" width="512pt" xmlns="http://www.w3.org/2000/svg"><path d="m324.195312 207v-66.691406c0-77.367188-62.941406-140.308594-140.308593-140.308594-77.367188 0-140.3125 62.941406-140.3125 140.308594v66.691406h-43.574219v305h367.769531v-305zm-250.621093-66.691406c0-60.824219 49.488281-110.308594 110.3125-110.308594s110.308593 49.484375 110.308593 110.308594v66.691406h-33.394531v-65.421875c0-42.40625-34.503906-76.910156-76.914062-76.910156-42.410157 0-76.914063 34.503906-76.914063 76.910156v65.421875h-33.398437zm157.222656 66.691406h-93.824219v-65.421875c0-25.867187 21.046875-46.910156 46.914063-46.910156 25.867187 0 46.910156 21.042969 46.910156 46.910156zm106.976563 275h-307.773438v-245h307.769531v245zm0 0"/><path d="m168.886719 378.8125v47.1875h30v-47.1875c19.203125-6.320312 33.105469-24.414062 33.105469-45.703125 0-26.527344-21.578126-48.109375-48.105469-48.109375-26.527344 0-48.109375 21.582031-48.109375 48.109375 0 21.289063 13.90625 39.382813 33.109375 45.703125zm15-63.8125c9.984375 0 18.105469 8.121094 18.105469 18.109375 0 9.984375-8.121094 18.109375-18.105469 18.109375s-18.109375-8.125-18.109375-18.109375c0-9.988281 8.125-18.109375 18.109375-18.109375zm0 0"/></svg>